/* XPM */
static char *result[] = {
/* columns rows colors chars-per-pixel */
"64 64 138 2 ",
"   c #0C2A56",
".  c #0E2D59",
"X  c #102F5A",
"o  c #13325D",
"O  c #153562",
"+  c #183761",
"@  c #173A66",
"#  c #1B3B66",
"$  c #19376B",
"%  c #173C6A",
"&  c #1C3C6A",
"*  c #1E3F72",
"=  c #223F67",
"-  c #213F68",
";  c #1E426D",
":  c #1C4370",
">  c #1F4A77",
",  c #1D4D7D",
"<  c #26436C",
"1  c #2A466D",
"2  c #2D486F",
"3  c #224473",
"4  c #234975",
"5  c #2D4B73",
"6  c #24437D",
"7  c #234D7A",
"8  c #294D78",
"9  c #344E73",
"0  c #23517D",
"q  c #375177",
"w  c #385176",
"e  c #3B557B",
"r  c #3F587D",
"t  c #425B7F",
"y  c #1E5080",
"u  c #1C578C",
"i  c #1F598C",
"p  c #1C5D94",
"a  c #1C5F98",
"s  c #274A82",
"d  c #2B4B84",
"f  c #304F8B",
"g  c #245383",
"h  c #285382",
"j  c #2C5986",
"k  c #255788",
"l  c #255B8C",
"z  c #2C5D8C",
"x  c #335083",
"c  c #325D89",
"v  c #245E92",
"b  c #235F9A",
"n  c #365593",
"m  c #385797",
"M  c #345996",
"N  c #36569B",
"B  c #3D5B9E",
"V  c #1E6097",
"C  c #1D629A",
"Z  c #236196",
"A  c #2B6294",
"S  c #24639C",
"D  c #2B649C",
"F  c #28689C",
"G  c #306393",
"H  c #3D5DA4",
"J  c #1E69A2",
"K  c #2C64A5",
"L  c #236DA5",
"P  c #2B6BA1",
"I  c #366FA0",
"U  c #3566AD",
"Y  c #3A6AAC",
"T  c #2970A7",
"R  c #2C73A8",
"E  c #3770A0",
"W  c #3F74A4",
"Q  c #3D69B4",
"!  c #475F81",
"~  c #4B6383",
"^  c #536989",
"/  c #5A6F8E",
"(  c #5D728F",
")  c #4B6C90",
"_  c #5E7391",
"`  c #647793",
"'  c #687B97",
"]  c #6B7E99",
"[  c #415FA9",
"{  c #4463AA",
"}  c #4D79A2",
"|  c #4664B3",
" . c #4865B1",
".. c #4A69B4",
"X. c #446CBB",
"o. c #4D6CBD",
"O. c #4E6EC2",
"+. c #4D71C4",
"@. c #5472C4",
"#. c #5674CE",
"$. c #5775D1",
"%. c #5876D1",
"&. c #6E819B",
"*. c #71839D",
"=. c #7587A1",
"-. c #7A8CA4",
";. c #8695AB",
":. c #8B9AAF",
">. c #8D9CB1",
",. c #94A2B5",
"<. c #99A6B8",
"1. c #9DAABB",
"2. c #92B2CC",
"3. c #A4AFC0",
"4. c #ACB5C6",
"5. c #AFB9C7",
"6. c #AEB9C8",
"7. c #B3BDCA",
"8. c #B7C1CD",
"9. c #B8C0CE",
"0. c #B4C1E8",
"q. c #C2CAD5",
"w. c #C6CCD8",
"e. c #CCD3DC",
"r. c #D2D8E1",
"t. c #D9DEE4",
"y. c #DEE1E7",
"u. c #D9E3ED",
"i. c #DFE7F1",
"p. c #E1E5EA",
"a. c #E7EAEE",
"s. c #E3EAF1",
"d. c #EAEDF1",
"f. c #EEF0F3",
"g. c #F2F4F6",
"h. c #F6F7F9",
"j. c #F7F8FA",
"k. c #FFFFFF",
/* pixels */
"k.k.k.k.k.k.k.k.k.k.k.k.k.k.k.k.k.k.k.k.k.k.k.k.k.k.k.k.k.k.k.k.k.k.k.k.k.k.k.k.k.k.k.k.k.k.k.k.k.k.k.k.k.k.k.k.k.k.k.k.k.k.k.k.",
"k.k.k.k.k.k.k.k.k.k.k.k.k.k.k.k.k.k.k.k.k.k.k.k.k.k.k.k.k.k.k.k.k.k.k.k.k.k.k.k.k.k.k.k.k.k.k.k.k.k.k.k.k.k.k.k.k.k.k.k.k.k.k.k.",
"k.k.k.k.k.k.k.k.k.k.k.k.k.k.k.k.k.k.k.k.k.k.k.k.k.k.k.k.k.k.k.k.k.k.k.k.k.k.k.k.k.k.k.k.k.k.k.k.k.k.k.k.k.k.k.k.k.k.k.k.k.k.k.k.",
"k.k.k.k.k.k.k.k.k.k.k.k.k.k.k.k.k.k.k.k.k.k.k.k.k.k.k.k.k.k.k.k.k.k.k.k.k.k.k.k.k.k.k.k.k.k.k.k.k.k.k.k.k.k.k.k.k.k.k.k.k.k.k.k.",
"k.k.k.k.k.k.k.k.k.k.k.k.k.k.k.k.k.k.k.k.k.k.k.k.k.k.k.k.k.k.k.k.k.k.k.k.k.k.k.k.k.k.k.k.k.k.k.k.k.k.k.k.k.k.k.k.k.k.k.k.k.k.k.k.",
"k.k.k.k.k.k.k.k.k.k.k.k.k.k.k.k.k.k.k.k.k.k.k.k.k.k.k.k.k.k.k.k.k.k.k.k.k.k.k.k.k.k.k.k.k.k.k.k.k.k.k.k.k.k.k.k.k.k.k.k.k.k.k.k.",
"k.k.k.k.k.k.k.k.k.k.k.k.k.k.k.k.k.k.k.k.k.k.k.k.k.k.k.k.k.k.k.k.k.k.k.k.k.k.k.k.k.k.k.k.k.k.k.k.k.k.k.k.k.k.k.k.k.k.k.k.k.k.k.k.",
"k.k.k.k.k.k.k.k.k.k.k.k.k.k.k.k.k.k.k.k.k.k.k.k.k.k.k.k.k.k.k.k.k.k.k.k.k.k.k.k.k.k.k.k.k.k.k.k.k.k.k.k.k.k.k.k.k.k.k.k.k.k.k.k.",
"k.k.k.k.k.k.k.k.k.k.k.k.k.k.k.k.k.k.k.k.k.k.k.k.k.k.k.k.k.k.k.k.k.k.k.k.k.k.k.k.k.k.k.k.k.k.k.k.k.k.k.k.k.k.k.k.k.k.k.k.k.k.k.k.",
"k.k.k.k.k.k.k.k.k.k.k.k.k.k.k.k.k.k.k.k.k.k.k.k.k.k.k.k.k.k.k.k.k.k.k.k.k.k.k.k.k.k.k.k.k.k.k.k.k.k.k.k.k.k.k.k.k.k.k.k.k.k.k.k.",
"k.k.k.k.k.k.k.k.k.k.k.k.k.k.k.k.k.k.k.k.k.k.k.k.k.k.k.k.2.p 0 X   . . < g.k.k.k.k.k.k.k.k.k.k.k.k.k.k.k.k.k.k.k.k.k.k.k.k.k.k.k.",
"k.k.k.k.k.k.k.k.k.k.k.k.k.k.k.k.k.k.k.k.k.k.k.k.k.k.u.X.U S p p S 7   . o ^ j.k.k.k.k.k.k.k.k.k.k.k.k.k.k.k.k.k.k.k.k.k.k.k.k.k.",
"k.k.k.k.k.k.k.k.k.k.k.k.k.k.k.k.k.k.k.k.k.k.k.k.k.6.& % , D K Q O.S p l   . o k.k.k.k.k.k.k.k.k.k.k.k.k.k.k.k.k.k.k.k.k.k.k.k.k.",
"k.k.k.k.k.k.k.k.k.k.k.k.k.k.k.k.k.k.k.k.k.k.k.k.y.o 8 8 q o   o 3 p b K p z . o k.k.k.k.k.k.k.k.k.k.k.k.k.k.k.k.k.k.k.k.k.k.k.k.",
"k.k.k.k.k.k.k.k.k.k.k.k.k.k.k.k.k.k.k.k.k.k.k.j.C l c 5 3 < 8 7 i z X 7 S p p o &.k.k.k.k.k.k.k.k.k.k.k.k.k.k.k.k.k.k.k.k.k.k.k.",
"k.k.k.k.k.k.k.k.k.k.k.k.k.k.k.k.k.k.k.k.k.k.k.o . . . . . . . . . .   j o & p p @ g.k.k.k.k.k.k.k.k.k.k.k.k.k.k.k.k.k.k.k.k.k.k.",
"k.k.k.k.k.k.k.k.k.k.k.k.k.k.k.k.k.k.k.k.k.k.d.  . .   . 6 n d * * 4 3     3   Z p # k.k.k.k.k.k.k.k.k.k.k.k.k.k.k.k.k.k.k.k.k.k.",
"k.k.k.k.k.k.k.k.k.k.k.k.k.k.k.k.k.k.k.k.k.k.. . . X 8 & f S Z C a S M X - X X . p z j.k.k.k.k.k.k.k.k.k.k.k.k.k.k.k.k.k.k.k.k.k.",
"k.k.k.k.k.k.k.k.k.k.k.k.k.k.k.k.k.k.k.k.k.k.. .   Y 4 Y p :   .   . . h . X . . o p &.k.k.k.k.k.k.k.k.k.k.k.k.k.k.k.k.k.k.k.k.k.",
"k.k.k.k.k.k.k.k.k.k.k.k.k.k.k.k.k.k.k.k.k.9.. . Y D g l 8 o k.9     . .   . X . . p . k.k.k.k.k.k.k.k.k.k.k.k.k.k.k.k.k.k.k.k.k.",
"k.k.k.k.k.k.k.k.k.k.k.k.k.k.k.k.k.k.k.k.k.< . > m o j G . X j.9 3 . . $ s   . X . p   k.k.k.k.k.k.k.k.k.k.k.k.k.k.k.k.k.k.k.k.k.",
"k.k.k.k.k.k.k.k.k.k.k.k.k.k.k.k.k.k.k.k.k..   m d p O . #   h.w . . .     O . j   p   d.k.k.k.k.k.k.k.k.k.k.k.k.k.k.k.k.k.k.k.k.",
"k.k.k.k.k.k.k.k.k.k.k.k.k.k.k.k.k.k.k.k.j.. s N   X F X x X g.w @   . . O . . o 4 l . q.k.k.k.k.k.k.k.k.k.k.k.k.k.k.k.k.k.k.k.k.",
"k.k.k.k.k.k.k.k.k.k.k.k.k.k.k.k.k.k.k.k.k.. +.%.;   l o o.X j.9 k b 7 O O l l @ p . . ;.k.k.k.k.k.k.k.k.k.k.k.k.k.k.k.k.k.k.k.k.",
"k.k.k.k.k.k.k.k.k.k.k.k.k.k.k.k.k.k.k.k.k.. o.[ 3   l . O.. h.} +   7 l y o l Z   . . ' k.k.k.k.k.k.k.k.k.k.k.k.k.k.k.k.k.k.k.k.",
"k.k.k.k.k.k.k.k.k.k.k.k.k.k.k.k.k.k.k.k.k.. { H . . C . o @ j.9 X h P P C A & . . . . ] k.k.k.k.k.k.k.k.k.k.k.k.k.k.k.k.k.k.k.k.",
"k.k.k.k.k.k.k.k.k.k.k.k.k.k.k.k.k.k.k.k.j.X | O.. . g . . O.j.9 X X     . . . . . . . ,.k.k.k.k.k.k.k.k.k.k.k.k.k.k.k.k.k.k.k.k.",
"k.k.k.k.k.k.k.k.k.k.k.k.k.k.k.k.k.k.k.k.k.. @.%.. .   A X + j.q X   X . . . . . . . O i.k.k.k.k.k.k.k.k.k.k.k.k.k.k.k.k.k.k.k.k.",
"k.k.k.k.k.k.k.k.k.k.k.k.k.k.k.k.k.k.k.k.k.o #.B   . . v 4 X j.W A @ . . . . . . @ Z p j.k.k.k.k.k.k.k.k.k.k.k.k.k.k.k.k.k.k.k.k.",
"k.k.k.k.k.k.k.k.k.k.k.k.k.k.k.k.k.k.k.k.k.' b   B . . . p g h.k.k.k.j.F i u S p p p p k.k.k.k.k.k.k.k.k.k.k.k.k.k.k.k.k.k.k.k.k.",
"k.k.k.k.k.k.k.k.k.k.k.k.k.k.k.k.k.k.k.k.k.g.,  .#.  . .   Z I q 1 } E p p p p p p p F k.k.k.k.k.k.k.k.k.k.k.k.k.k.k.k.k.k.k.k.k.",
"k.k.k.k.k.k.k.k.k.k.k.k.k.k.k.k.k.k.k.k.k.k.X b : m . .   . z a p O . g p V p p p p s.k.k.k.k.k.k.k.k.k.k.k.k.k.k.k.k.k.k.k.k.k.",
"k.k.k.k.k.k.k.k.k.k.k.k.k.k.k.k.k.k.k.k.k.k.-.b ..#.      . X X C p p g o .   . . . k.k.k.k.k.k.k.k.k.k.k.k.k.k.k.k.k.k.k.k.k.k.",
"k.k.k.k.k.k.k.k.k.k.k.k.k.k.k.k.k.k.k.k.k.k.k.& p   #.. X . . .   : a p p a v , : 7.k.k.k.k.k.k.k.k.k.k.k.k.k.k.k.k.k.k.k.k.k.k.",
"k.k.k.k.k.k.k.k.k.k.k.k.k.k.k.k.k.k.k.k.k.k.k.4.X.p { o.. . . . .   . % Z p p p p k.k.k.k.k.k.k.k.k.k.k.k.k.k.k.k.k.k.k.k.k.k.k.",
"k.k.k.k.k.k.k.k.k.k.k.k.k.k.k.k.k.k.k.k.k.k.k.k.- p A #...X X   . . . . . . : Z j.k.k.k.k.k.k.k.k.k.k.k.k.k.k.k.k.k.k.k.k.k.k.k.",
"k.k.k.k.k.k.k.k.k.k.k.k.k.k.k.k.k.k.k.k.k.k.k.k.k.X.p 0 $.o.. . . . . . . . . a.k.k.k.k.k.k.k.k.k.k.k.k.k.k.k.k.k.k.k.k.k.k.k.k.",
"k.k.k.k.k.k.k.k.k.k.k.k.k.k.k.k.k.k.k.k.k.k.k.k.k.k.#.p 7 $.%.    . . . . . d.k.k.k.k.k.k.k.k.k.k.k.k.k.k.k.k.k.k.k.k.k.k.k.k.k.",
"k.k.k.k.k.k.k.k.k.k.k.k.k.k.k.k.k.k.k.k.k.k.k.k.k.k.k.0.p > @.$.@ X   X < k.k.k.k.k.k.k.k.k.k.k.k.k.k.k.k.k.k.k.k.k.k.k.k.k.k.k.",
"k.k.k.k.k.k.k.k.k.k.k.k.k.k.k.k.k.k.k.k.k.k.k.k.k.k.k.k.k.i.) n #.o.,.k.k.k.k.k.k.k.k.k.k.k.k.k.k.k.k.k.k.k.k.k.k.k.k.k.k.k.k.k.",
"k.k.k.k.k.k.k.k.k.k.k.k.k.k.k.k.k.k.k.k.k.k.k.k.k.k.k.k.k.k.k.k.k.k.k.k.k.k.k.k.k.k.k.k.k.k.k.k.k.k.k.k.k.k.k.k.k.k.k.k.k.k.k.k.",
"k.k.k.k.k.k.k.k.k.k.k.k.k.k.k.k.k.k.k.k.k.k.k.k.k.k.k.k.k.k.k.k.k.k.k.k.k.k.k.k.k.k.k.k.k.k.k.k.k.k.k.k.k.k.k.k.k.k.k.k.k.k.k.k.",
"k.k.k.k.k.k.k.k.k.k.k.k.k.k.k.k.k.k.k.k.k.k.k.k.k.k.k.k.k.k.k.k.k.k.k.k.k.k.k.k.k.k.k.k.k.k.k.k.k.k.k.k.k.k.k.k.k.k.k.k.k.k.k.k.",
"k.k.k.k.k.k.k.k.k.k.k.k.k.k.k.k.k.k.k.k.k.k.k.k.k.k.k.k.k.k.k.k.k.k.k.k.k.k.k.k.k.k.k.k.k.k.k.k.k.k.k.k.k.k.k.k.k.k.k.k.k.k.k.k.",
"k.k.k.k.k.k.k.k.k.k.k.k.k.k.k.k.k.k.k.k.k.k.k.k.k.k.k.k.k.k.k.k.k.k.k.k.k.k.k.k.k.k.k.k.k.k.k.k.k.k.k.k.k.k.k.k.k.k.k.k.k.k.k.k.",
"k.k.k.k.k.k.k.d.k.k.k.p.k.k.k.k.k.k.k.k.k.k.k.k.k.k.d.k.k.k.k.a.a.k.k.k.k.k.k.k.k.k.k.k.k.k.k.k.k.k.k.k.k.k.k.k.! k.k.k.k.k.k.k.",
"k.k.k.k.k.k.k.^ k.k.k.*.j.-.k.k.k.k.k.k.k.k.k.k.k.k.,.k.k.k.k.1 :.X k.h.g.k.k.k.k.k.k.k.k.k.k.k.k.k.k.k.k.k.k.k.t j.k.k.k.k.k.k.",
"k.k.k.k.k.k.k.^ k.k.k.5.3.~ k.g.=.k.k.;.e.k.j.*.k.k.q.p.k.;.k.1 k.k.;.j.h.k.*.g.k.8.*.k.*.k.k.w.:.k.t.a.,.k.k.*.t k.k.k.k.k.k.k.",
"k.k.k.k.k.k.k.~ k.k.j.t g.] k.= g.-.7.a.^ k.X h.+ k.` 7.-.` k.1 k.k.9 g.d.( g.O k.. h.. j.5 k./ e.6.<.,./ k.1 h.. k.k.k.k.k.k.k.",
"k.k.k.k.k.k.k.^ k.k.k.t k.] k.:.d.2 w k.g.k.! k.= k.` 7.k.p.k.1 k.k.2 g.d.k.a.- k.9 k.2 k.o q.d.k.9 1.g.7.d.o k.r k.k.k.k.k.k.k.",
"k.k.k.k.k.k.k.^ k.k.j.e j.*.g./ :.>.9 k.k.k./ k.2 k.` 7.k.p.k.1 k.k.t g.d.-.7.- j.9 k.1 k.X 8.d.k.< 1.h.7.g.+ k.t j.k.k.k.k.k.k.",
"k.k.k.k.k.k.k.^ j.k.k.t k.*.k.` j.k._ j.q.k.< k.X j.` 7.k.p.k.1 j.a.q.g.a.# j.- k.9 k.1 k.o p.r.k.^ 1.h.7.d.O k.e k.k.k.k.k.k.k.",
"k.k.k.k.k.k.k.^ . . k.e k.X k.= O 1.j.. O k.` + 6.k.` 7.k.p.k.< . # k.g.d.<.X # j.9 k.2 k.X k.o . j.1.g.7.f.1.o e k.k.k.k.k.k.k.",
"k.k.k.k.k.k.k.k.k.k.k.k.k.k.k.k.k.k.k.k.k.k.k.k.k.k.k.k.k.k.k.k.k.k.k.k.k.k.k.k.k.k.k.k.k.k.k.k.k.k.k.k.k.k.k.k.k.k.k.k.k.k.k.k.",
"k.k.k.k.k.k.k.k.k.k.k.k.k.k.k.k.k.k.k.k.k.k.k.k.k.k.k.k.k.k.k.k.k.k.k.k.k.k.k.k.k.k.k.k.k.k.k.k.k.k.k.k.k.k.k.k.k.k.k.k.k.k.k.k.",
"k.k.k.k.k.k.k.k.k.k.k.k.k.k.k.k.k.k.k.k.k.k.k.k.k.k.k.k.k.k.k.k.k.k.k.k.k.k.k.k.k.k.k.k.k.k.k.k.k.k.k.k.k.k.k.k.k.k.k.k.k.k.k.k.",
"k.k.k.k.k.k.k.k.k.k.k.k.k.k.k.k.k.k.k.k.k.k.k.k.k.k.k.k.k.k.k.k.k.k.k.k.k.k.k.k.k.k.k.k.k.k.k.k.k.k.k.k.k.k.k.k.k.k.k.k.k.k.k.k.",
"k.k.k.k.k.k.k.k.k.k.k.k.k.k.k.k.k.k.k.k.k.k.k.k.k.k.k.k.k.k.k.k.k.k.k.k.k.k.k.k.k.k.k.k.k.k.k.k.k.k.k.k.k.k.k.k.k.k.k.k.k.k.k.k.",
"k.k.k.k.k.k.k.k.k.k.k.k.k.k.k.k.k.k.k.k.k.k.k.k.k.k.k.k.k.k.k.k.k.k.k.k.k.k.k.k.k.k.k.k.k.k.k.k.k.k.k.k.k.k.k.k.k.k.k.k.k.k.k.k.",
"k.k.k.k.k.k.k.k.k.k.k.k.k.k.k.k.k.k.k.k.k.k.k.k.k.k.k.k.k.k.k.k.k.k.k.k.k.k.k.k.k.k.k.k.k.k.k.k.k.k.k.k.k.k.k.k.k.k.k.k.k.k.k.k.",
"k.k.k.k.k.k.k.k.k.k.k.k.k.k.k.k.k.k.k.k.k.k.k.k.k.k.k.k.k.k.k.k.k.k.k.k.k.k.k.k.k.k.k.k.k.k.k.k.k.k.k.k.k.k.k.k.k.k.k.k.k.k.k.k.",
"k.k.k.k.k.k.k.k.k.k.k.k.k.k.k.k.k.k.k.k.k.k.k.k.k.k.k.k.k.k.k.k.k.k.k.k.k.k.k.k.k.k.k.k.k.k.k.k.k.k.k.k.k.k.k.k.k.k.k.k.k.k.k.k.",
"k.k.k.k.k.k.k.k.k.k.k.k.k.k.k.k.k.k.k.k.k.k.k.k.k.k.k.k.k.k.k.k.k.k.k.k.k.k.k.k.k.k.k.k.k.k.k.k.k.k.k.k.k.k.k.k.k.k.k.k.k.k.k.k.",
"J J J J J J J J J L J L J J L L J L L L L L L L L L L L T L L T L L T L L T T L R L T T T T T T T T T T T R R R R R R R R R R R "
};
