/* XPM */
static char *result[] = {
/* columns rows colors chars-per-pixel */
"16 16 45 1 ",
"  c #032251",
". c #0D2C58",
"X c #0E2D58",
"o c #0E2C59",
"O c #0E2D59",
"+ c #0F2D59",
"@ c #0E2E5A",
"# c #0E2E5D",
"$ c #112F5A",
"% c #12325E",
"& c #13335E",
"* c #133460",
"= c #1A4372",
"- c #1E4876",
"; c #1F4179",
": c #2C476D",
"> c #28487F",
", c #3A5378",
"< c #435C7E",
"1 c #155085",
"2 c #1B5C93",
"3 c #1C5D94",
"4 c #1E5E95",
"5 c #225A8C",
"6 c #225E93",
"7 c #345B92",
"8 c #276396",
"9 c #5B708E",
"0 c #657996",
"q c #506EC3",
"w c #506FC3",
"e c #71849E",
"r c #798BA3",
"t c #ACB7C6",
"y c #B6BFCD",
"u c #E1E5EB",
"i c #EBEDF1",
"p c #EFF3F7",
"a c #F1F3F5",
"s c #F9FAFB",
"d c #FAFBFB",
"f c #FCFCFD",
"g c #FDFDFD",
"h c #FEFEFE",
"j c white",
/* pixels */
"jjjjjjjjjjjjjjjj",
"jjjjjjjjjjjjjjjj",
"jjjjjjjr9jjjjjjj",
"jjjjjj48=6jjjjjj",
"jjjjjt75-+%jjjjj",
"jjjjj+.;oO&jjjjj",
"jjjjjqX %$Ojjjjj",
"jjjjj@O1p33jjjjj",
"jjjjjj>O*2hjjjjj",
"jjjjjjgwOujjjjjj",
"jjjjjjjjjjjjjjjj",
"jjjjjj<jijjjjjjj",
"jjjhf:,#e0dasyjj",
"jjjjjjjjjjjjjjjj",
"jjjjjjjjjjjjjjjj",
"jjjjjjjjjjjjjjjj"
};
