/* XPM */
static char *_5f764628ebb4517c79d4c6e774e7f8aoO1zqkBWyuQZwD3K[] = {
/* columns rows colors chars-per-pixel */
"32 32 108 2 ",
"   c #0B2A57",
".  c #0E2B57",
"X  c #0D2C57",
"o  c #0D2C58",
"O  c #0F2D59",
"+  c #0F2E5A",
"@  c #13325E",
"#  c #12335F",
"$  c #15345F",
"%  c #153560",
"&  c #143662",
"*  c #1B3962",
"=  c #183967",
"-  c #1C3A64",
";  c #1F3D66",
":  c #153C69",
">  c #1C3B6A",
",  c #1A3C69",
"<  c #1E3E68",
"1  c #1D3B6F",
"2  c #213E68",
"3  c #1C4878",
"4  c #1D4B7C",
"5  c #26436A",
"6  c #25446F",
"7  c #27467B",
"8  c #204B79",
"9  c #304B73",
"0  c #24507E",
"q  c #28527E",
"w  c #3E577A",
"e  c #425B7C",
"r  c #195B93",
"t  c #1B5C93",
"y  c #1D5C93",
"u  c #1B5D95",
"i  c #1F5D94",
"p  c #274E88",
"a  c #304E8F",
"s  c #235482",
"d  c #205586",
"f  c #225687",
"g  c #265786",
"h  c #235788",
"j  c #285A8A",
"k  c #315089",
"l  c #225E94",
"z  c #206096",
"x  c #306298",
"c  c #38639F",
"v  c #3D5BA6",
"b  c #1D68A2",
"n  c #1E69A2",
"m  c #2C63A4",
"M  c #2D64A5",
"N  c #206AA3",
"B  c #236CA4",
"V  c #276FA6",
"C  c #2970A7",
"Z  c #2B72A7",
"A  c #2B72A8",
"S  c #2D73A8",
"D  c #2E74A9",
"F  c #485F81",
"G  c #4E6485",
"H  c #516786",
"J  c #526989",
"K  c #667995",
"L  c #677B96",
"P  c #4260A8",
"I  c #4463AE",
"U  c #4968B3",
"Y  c #4E6BBA",
"T  c #5371C8",
"R  c #5386B0",
"E  c #5A8AB2",
"W  c #7D8DA5",
"Q  c #7E8FA6",
"!  c #628EB5",
"~  c #8191A8",
"^  c #8292A9",
"/  c #8B99AF",
"(  c #94A2B5",
")  c #9AA7B9",
"_  c #9FACBC",
"`  c #A4AFC0",
"'  c #A8B4C3",
"]  c #AEB8C7",
"[  c #AEB8C8",
"{  c #B5BECC",
"}  c #BAC3CF",
"|  c #BFC7D3",
" . c #C3CBD6",
".. c #CBD1DA",
"X. c #D1D7DF",
"o. c #D6DCE3",
"O. c #DADFE6",
"+. c #DCE0E6",
"@. c #E1E5EA",
"#. c #E6E9EE",
"$. c #EDEFF2",
"%. c #EFF0F3",
"&. c #F5F6F8",
"*. c #FAFBFB",
"=. c #FBFBFC",
"-. c #FBFCFD",
";. c #FCFCFD",
":. c white",
/* pixels */
":.:.:.:.:.:.:.:.:.:.:.:.:.:.:.:.:.:.:.:.:.:.:.:.:.:.:.:.:.:.:.:.",
":.:.:.:.:.:.:.:.:.:.:.:.:.:.:.:.:.:.:.:.:.:.:.:.:.:.:.:.:.:.:.:.",
":.:.:.:.:.:.:.:.:.:.:.:.:.:.:.:.:.:.:.:.:.:.:.:.:.:.:.:.:.:.:.:.",
":.:.:.:.:.:.:.:.:.:.:.:.:.:.:.:.:.:.:.:.:.:.:.:.:.:.:.:.:.:.:.:.",
":.:.:.:.:.:.:.:.:.:.:.:.:.:.:.:.:.:.:.:.:.:.:.:.:.:.:.:.:.:.:.:.",
":.:.:.:.:.:.:.:.:.:.:.:.:.$.r l # + _ :.:.:.:.:.:.:.:.:.:.:.:.:.",
":.:.:.:.:.:.:.:.:.:.:.:.] + # 0 m l 1 5 :.:.:.:.:.:.:.:.:.:.:.:.",
":.:.:.:.:.:.:.:.:.:.:.:.& X + + % 4 f u | :.:.:.:.:.:.:.:.:.:.:.",
":.:.:.:.:.:.:.:.:.:.:.+ @ = > p 4 ; . + z :.:.:.:.:.:.:.:.:.:.:.",
":.:.:.:.:.:.:.:.:.:.:.+ c x = H +   + + f &.:.:.:.:.:.:.:.:.:.:.",
":.:.:.:.:.:.:.:.:.:.%.# % g + =.+ + v + 3 5 :.:.:.:.:.:.:.:.:.:.",
":.:.:.:.:.:.:.:.:.:.L k 0   . :.4 . + 0 y + :.:.:.:.:.:.:.:.:.:.",
":.:.:.:.:.:.:.:.:.:.w a + . U =.j , 4 h + X :.:.:.:.:.:.:.:.:.:.",
":.:.:.:.:.:.:.:.:.:.( 1 + z . :.+   + + + + :.:.:.:.:.:.:.:.:.:.",
":.:.:.:.:.:.:.:.:.:.*.P + + 3 :.! : # 3 u E :.:.:.:.:.:.:.:.:.:.",
":.:.:.:.:.:.:.:.:.:.:.u T + . r . y y y r :.:.:.:.:.:.:.:.:.:.:.",
":.:.:.:.:.:.:.:.:.:.:.# 7   + + f t f $ + :.:.:.:.:.:.:.:.:.:.:.",
":.:.:.:.:.:.:.:.:.:.:.:.m Y o + X + 3 y *.:.:.:.:.:.:.:.:.:.:.:.",
":.:.:.:.:.:.:.:.:.:.:.:.:.t T . + X X  .:.:.:.:.:.:.:.:.:.:.:.:.",
":.:.:.:.:.:.:.:.:.:.:.:.:.:.R I k * :.:.:.:.:.:.:.:.:.:.:.:.:.:.",
":.:.:.:.:.:.:.:.:.:.:.:.:.:.:.:.:.:.:.:.:.:.:.:.:.:.:.:.:.:.:.:.",
":.:.:.:.:.:.:.:.:.:.:.:.:.:.:.:.:.:.:.:.:.:.:.:.:.:.:.:.:.:.:.:.",
":.:.:.:.:.:.:.:.:.:.:.:.:.:.:.:.:.:.:.:.:.:.:.:.:.:.:.:.&.:.:.:.",
":.:.:.*.:.*.J :.:.:.:.*.:.:.=.:.:.:.:.*.:.*.:.:.:.*.:.:./ :.:.:.",
":.:.:.=.:.W J F Q e 6 :.O.*.:.:.:.=.:.:.^ Q ( % G 2 ; o./ :.:.:.",
":.:.:.=.:.Q J 2 =.L ..:.[ *.:.:.:.;.:.:.^ ) ' $ ~ 9 * #./ :.:.:.",
":.:.:.;.] X.&.:.} $.:.` :.=.:.:.} :.:.O.o.O.@.:.$.{ ] ] o.:.:.:.",
":.:.:.:.:.:.:.:.:.:.:.:.:.:.:.:.:.:.:.:.:.:.:.:.:.:.:.:.:.:.:.:.",
":.:.:.:.:.:.:.:.:.:.:.:.:.:.:.:.:.:.:.:.:.:.:.:.:.:.:.:.:.:.:.:.",
":.:.:.:.:.:.:.:.:.:.:.:.:.:.:.:.:.:.:.:.:.:.:.:.:.:.:.:.:.:.:.:.",
":.:.:.:.:.:.:.:.:.:.:.:.:.:.:.:.:.:.:.:.:.:.:.:.:.:.:.:.:.:.:.:.",
"b n n N n N N n B B B B B B V B V V V V V C C C C Z A Z Z S Z Z "
};
